<mxfile host="app.diagrams.net" agent="Mozilla/5.0 (Macintosh; Intel Mac OS X 10_15_7) AppleWebKit/605.1.15 (KHTML, like Gecko) Version/18.0.1 Safari/605.1.15" version="24.8.3">
  <diagram name="Halaman-1" id="MjMvgmdKR5DhXtK8cqhv">
    <mxGraphModel dx="2417" dy="2206" grid="1" gridSize="10" guides="1" tooltips="1" connect="1" arrows="1" fold="1" page="1" pageScale="1" pageWidth="827" pageHeight="1169" math="0" shadow="0">
      <root>
        <mxCell id="0" />
        <mxCell id="1" parent="0" />
        <mxCell id="m8yf4vWD9gJKO4N2qwgh-2" value="Buku" style="whiteSpace=wrap;html=1;align=center;" parent="1" vertex="1">
          <mxGeometry x="670" y="50" width="140" height="70" as="geometry" />
        </mxCell>
        <mxCell id="m8yf4vWD9gJKO4N2qwgh-3" value="Peminjam" style="whiteSpace=wrap;html=1;align=center;" parent="1" vertex="1">
          <mxGeometry x="180" y="55" width="140" height="70" as="geometry" />
        </mxCell>
        <mxCell id="m8yf4vWD9gJKO4N2qwgh-4" value="Pustakawan" style="whiteSpace=wrap;html=1;align=center;" parent="1" vertex="1">
          <mxGeometry x="-230" y="55" width="140" height="70" as="geometry" />
        </mxCell>
        <mxCell id="m8yf4vWD9gJKO4N2qwgh-5" value="Penulis" style="whiteSpace=wrap;html=1;align=center;" parent="1" vertex="1">
          <mxGeometry x="1190" y="55" width="140" height="70" as="geometry" />
        </mxCell>
        <mxCell id="m8yf4vWD9gJKO4N2qwgh-6" value="Menginformasikan" style="shape=rhombus;perimeter=rhombusPerimeter;whiteSpace=wrap;html=1;align=center;" parent="1" vertex="1">
          <mxGeometry x="680" y="380" width="120" height="60" as="geometry" />
        </mxCell>
        <mxCell id="m8yf4vWD9gJKO4N2qwgh-7" value="Melayani" style="shape=rhombus;perimeter=rhombusPerimeter;whiteSpace=wrap;html=1;align=center;" parent="1" vertex="1">
          <mxGeometry x="-220" y="380" width="120" height="60" as="geometry" />
        </mxCell>
        <mxCell id="m8yf4vWD9gJKO4N2qwgh-8" value="Meminjam" style="shape=rhombus;perimeter=rhombusPerimeter;whiteSpace=wrap;html=1;align=center;" parent="1" vertex="1">
          <mxGeometry x="414" y="-60" width="120" height="60" as="geometry" />
        </mxCell>
        <mxCell id="m8yf4vWD9gJKO4N2qwgh-9" value="Menulis" style="shape=rhombus;perimeter=rhombusPerimeter;whiteSpace=wrap;html=1;align=center;" parent="1" vertex="1">
          <mxGeometry x="940" y="55" width="120" height="60" as="geometry" />
        </mxCell>
        <mxCell id="m8yf4vWD9gJKO4N2qwgh-10" value="Melakukan" style="shape=rhombus;perimeter=rhombusPerimeter;whiteSpace=wrap;html=1;align=center;" parent="1" vertex="1">
          <mxGeometry x="190" y="290" width="120" height="60" as="geometry" />
        </mxCell>
        <mxCell id="m8yf4vWD9gJKO4N2qwgh-11" value="Melayani" style="shape=rhombus;perimeter=rhombusPerimeter;whiteSpace=wrap;html=1;align=center;" parent="1" vertex="1">
          <mxGeometry x="-10" y="60" width="120" height="60" as="geometry" />
        </mxCell>
        <mxCell id="m8yf4vWD9gJKO4N2qwgh-39" value="" style="endArrow=none;html=1;rounded=0;" parent="1" source="m8yf4vWD9gJKO4N2qwgh-4" target="m8yf4vWD9gJKO4N2qwgh-11" edge="1">
          <mxGeometry relative="1" as="geometry">
            <mxPoint x="140" y="210" as="sourcePoint" />
            <mxPoint x="300" y="210" as="targetPoint" />
          </mxGeometry>
        </mxCell>
        <mxCell id="m8yf4vWD9gJKO4N2qwgh-66" value="1" style="edgeLabel;html=1;align=center;verticalAlign=middle;resizable=0;points=[];" parent="m8yf4vWD9gJKO4N2qwgh-39" vertex="1" connectable="0">
          <mxGeometry x="0.0522" y="-2" relative="1" as="geometry">
            <mxPoint as="offset" />
          </mxGeometry>
        </mxCell>
        <mxCell id="m8yf4vWD9gJKO4N2qwgh-41" value="" style="endArrow=none;html=1;rounded=0;" parent="1" source="m8yf4vWD9gJKO4N2qwgh-3" target="m8yf4vWD9gJKO4N2qwgh-8" edge="1">
          <mxGeometry relative="1" as="geometry">
            <mxPoint x="115" y="93" as="sourcePoint" />
            <mxPoint x="190" y="97" as="targetPoint" />
          </mxGeometry>
        </mxCell>
        <mxCell id="m8yf4vWD9gJKO4N2qwgh-71" value="N" style="edgeLabel;html=1;align=center;verticalAlign=middle;resizable=0;points=[];" parent="m8yf4vWD9gJKO4N2qwgh-41" vertex="1" connectable="0">
          <mxGeometry x="-0.0638" y="1" relative="1" as="geometry">
            <mxPoint as="offset" />
          </mxGeometry>
        </mxCell>
        <mxCell id="m8yf4vWD9gJKO4N2qwgh-59" value="" style="endArrow=none;html=1;rounded=0;" parent="1" source="m8yf4vWD9gJKO4N2qwgh-8" target="m8yf4vWD9gJKO4N2qwgh-2" edge="1">
          <mxGeometry relative="1" as="geometry">
            <mxPoint x="696" y="29" as="sourcePoint" />
            <mxPoint x="721" y="60" as="targetPoint" />
          </mxGeometry>
        </mxCell>
        <mxCell id="m8yf4vWD9gJKO4N2qwgh-72" value="N" style="edgeLabel;html=1;align=center;verticalAlign=middle;resizable=0;points=[];" parent="m8yf4vWD9gJKO4N2qwgh-59" vertex="1" connectable="0">
          <mxGeometry x="0.1896" y="1" relative="1" as="geometry">
            <mxPoint as="offset" />
          </mxGeometry>
        </mxCell>
        <mxCell id="m8yf4vWD9gJKO4N2qwgh-60" value="" style="endArrow=none;html=1;rounded=0;" parent="1" source="m8yf4vWD9gJKO4N2qwgh-2" target="m8yf4vWD9gJKO4N2qwgh-9" edge="1">
          <mxGeometry relative="1" as="geometry">
            <mxPoint x="770" y="90" as="sourcePoint" />
            <mxPoint x="680" y="96" as="targetPoint" />
          </mxGeometry>
        </mxCell>
        <mxCell id="m8yf4vWD9gJKO4N2qwgh-73" value="N" style="edgeLabel;html=1;align=center;verticalAlign=middle;resizable=0;points=[];" parent="m8yf4vWD9gJKO4N2qwgh-60" vertex="1" connectable="0">
          <mxGeometry x="-0.0154" y="-2" relative="1" as="geometry">
            <mxPoint as="offset" />
          </mxGeometry>
        </mxCell>
        <mxCell id="m8yf4vWD9gJKO4N2qwgh-63" value="" style="endArrow=none;html=1;rounded=0;" parent="1" source="m8yf4vWD9gJKO4N2qwgh-5" target="m8yf4vWD9gJKO4N2qwgh-9" edge="1">
          <mxGeometry relative="1" as="geometry">
            <mxPoint x="1010" y="170" as="sourcePoint" />
            <mxPoint x="1010" y="125" as="targetPoint" />
          </mxGeometry>
        </mxCell>
        <mxCell id="m8yf4vWD9gJKO4N2qwgh-74" value="1" style="edgeLabel;html=1;align=center;verticalAlign=middle;resizable=0;points=[];" parent="m8yf4vWD9gJKO4N2qwgh-63" vertex="1" connectable="0">
          <mxGeometry x="-0.0231" y="-1" relative="1" as="geometry">
            <mxPoint as="offset" />
          </mxGeometry>
        </mxCell>
        <mxCell id="m8yf4vWD9gJKO4N2qwgh-68" value="" style="endArrow=none;html=1;rounded=0;" parent="1" source="m8yf4vWD9gJKO4N2qwgh-11" target="m8yf4vWD9gJKO4N2qwgh-3" edge="1">
          <mxGeometry relative="1" as="geometry">
            <mxPoint x="-80" y="100" as="sourcePoint" />
            <mxPoint y="100" as="targetPoint" />
          </mxGeometry>
        </mxCell>
        <mxCell id="m8yf4vWD9gJKO4N2qwgh-70" value="N" style="edgeLabel;html=1;align=center;verticalAlign=middle;resizable=0;points=[];" parent="m8yf4vWD9gJKO4N2qwgh-68" vertex="1" connectable="0">
          <mxGeometry x="-0.0286" relative="1" as="geometry">
            <mxPoint as="offset" />
          </mxGeometry>
        </mxCell>
        <mxCell id="m8yf4vWD9gJKO4N2qwgh-90" value="" style="endArrow=none;html=1;rounded=0;" parent="1" source="m8yf4vWD9gJKO4N2qwgh-2" target="m8yf4vWD9gJKO4N2qwgh-6" edge="1">
          <mxGeometry relative="1" as="geometry">
            <mxPoint x="580" y="320" as="sourcePoint" />
            <mxPoint x="740" y="320" as="targetPoint" />
          </mxGeometry>
        </mxCell>
        <mxCell id="m8yf4vWD9gJKO4N2qwgh-113" value="N" style="edgeLabel;html=1;align=center;verticalAlign=middle;resizable=0;points=[];" parent="m8yf4vWD9gJKO4N2qwgh-90" vertex="1" connectable="0">
          <mxGeometry x="-0.181" y="1" relative="1" as="geometry">
            <mxPoint as="offset" />
          </mxGeometry>
        </mxCell>
        <mxCell id="m8yf4vWD9gJKO4N2qwgh-95" value="" style="endArrow=none;html=1;rounded=0;" parent="1" source="m8yf4vWD9gJKO4N2qwgh-6" target="m8yf4vWD9gJKO4N2qwgh-120" edge="1">
          <mxGeometry relative="1" as="geometry">
            <mxPoint x="360" y="515" as="sourcePoint" />
            <mxPoint x="320" y="491.42857142857156" as="targetPoint" />
          </mxGeometry>
        </mxCell>
        <mxCell id="m8yf4vWD9gJKO4N2qwgh-116" value="N" style="edgeLabel;html=1;align=center;verticalAlign=middle;resizable=0;points=[];" parent="m8yf4vWD9gJKO4N2qwgh-95" vertex="1" connectable="0">
          <mxGeometry x="-0.2483" y="3" relative="1" as="geometry">
            <mxPoint as="offset" />
          </mxGeometry>
        </mxCell>
        <mxCell id="m8yf4vWD9gJKO4N2qwgh-101" value="" style="endArrow=none;html=1;rounded=0;" parent="1" target="m8yf4vWD9gJKO4N2qwgh-10" edge="1">
          <mxGeometry relative="1" as="geometry">
            <mxPoint x="250" y="470" as="sourcePoint" />
            <mxPoint x="190" y="527" as="targetPoint" />
          </mxGeometry>
        </mxCell>
        <mxCell id="m8yf4vWD9gJKO4N2qwgh-115" value="1" style="edgeLabel;html=1;align=center;verticalAlign=middle;resizable=0;points=[];" parent="m8yf4vWD9gJKO4N2qwgh-101" vertex="1" connectable="0">
          <mxGeometry x="0.4096" relative="1" as="geometry">
            <mxPoint as="offset" />
          </mxGeometry>
        </mxCell>
        <mxCell id="m8yf4vWD9gJKO4N2qwgh-105" value="" style="endArrow=none;html=1;rounded=0;" parent="1" source="m8yf4vWD9gJKO4N2qwgh-10" target="m8yf4vWD9gJKO4N2qwgh-3" edge="1">
          <mxGeometry relative="1" as="geometry">
            <mxPoint x="341" y="357" as="sourcePoint" />
            <mxPoint x="296" y="342" as="targetPoint" />
          </mxGeometry>
        </mxCell>
        <mxCell id="m8yf4vWD9gJKO4N2qwgh-112" value="1" style="edgeLabel;html=1;align=center;verticalAlign=middle;resizable=0;points=[];" parent="m8yf4vWD9gJKO4N2qwgh-105" vertex="1" connectable="0">
          <mxGeometry x="-0.2045" y="3" relative="1" as="geometry">
            <mxPoint as="offset" />
          </mxGeometry>
        </mxCell>
        <mxCell id="m8yf4vWD9gJKO4N2qwgh-109" value="" style="endArrow=none;html=1;rounded=0;" parent="1" source="m8yf4vWD9gJKO4N2qwgh-7" target="m8yf4vWD9gJKO4N2qwgh-4" edge="1">
          <mxGeometry relative="1" as="geometry">
            <mxPoint x="-91" y="521" as="sourcePoint" />
            <mxPoint x="-136" y="443" as="targetPoint" />
          </mxGeometry>
        </mxCell>
        <mxCell id="m8yf4vWD9gJKO4N2qwgh-111" value="1" style="edgeLabel;html=1;align=center;verticalAlign=middle;resizable=0;points=[];" parent="m8yf4vWD9gJKO4N2qwgh-109" vertex="1" connectable="0">
          <mxGeometry x="0.1794" y="-3" relative="1" as="geometry">
            <mxPoint as="offset" />
          </mxGeometry>
        </mxCell>
        <mxCell id="m8yf4vWD9gJKO4N2qwgh-110" value="" style="endArrow=none;html=1;rounded=0;" parent="1" source="m8yf4vWD9gJKO4N2qwgh-7" target="m8yf4vWD9gJKO4N2qwgh-120" edge="1">
          <mxGeometry relative="1" as="geometry">
            <mxPoint x="-150" y="390" as="sourcePoint" />
            <mxPoint x="180" y="488.7804878048778" as="targetPoint" />
          </mxGeometry>
        </mxCell>
        <mxCell id="m8yf4vWD9gJKO4N2qwgh-114" value="1" style="edgeLabel;html=1;align=center;verticalAlign=middle;resizable=0;points=[];" parent="m8yf4vWD9gJKO4N2qwgh-110" vertex="1" connectable="0">
          <mxGeometry x="0.0669" y="-3" relative="1" as="geometry">
            <mxPoint as="offset" />
          </mxGeometry>
        </mxCell>
        <mxCell id="m8yf4vWD9gJKO4N2qwgh-120" value="Peminjaman" style="shape=ext;margin=3;double=1;whiteSpace=wrap;html=1;align=center;" parent="1" vertex="1">
          <mxGeometry x="180" y="470" width="140" height="70" as="geometry" />
        </mxCell>
        <mxCell id="m8yf4vWD9gJKO4N2qwgh-121" value="ISA" style="triangle;whiteSpace=wrap;html=1;direction=south;" parent="1" vertex="1">
          <mxGeometry x="210" y="-130" width="80" height="60" as="geometry" />
        </mxCell>
        <mxCell id="m8yf4vWD9gJKO4N2qwgh-122" value="" style="endArrow=none;html=1;rounded=0;" parent="1" source="m8yf4vWD9gJKO4N2qwgh-121" target="m8yf4vWD9gJKO4N2qwgh-3" edge="1">
          <mxGeometry relative="1" as="geometry">
            <mxPoint x="230" y="30" as="sourcePoint" />
            <mxPoint x="390" y="30" as="targetPoint" />
          </mxGeometry>
        </mxCell>
        <mxCell id="m8yf4vWD9gJKO4N2qwgh-123" value="Dosen" style="whiteSpace=wrap;html=1;align=center;" parent="1" vertex="1">
          <mxGeometry x="330" y="-220" width="100" height="40" as="geometry" />
        </mxCell>
        <mxCell id="m8yf4vWD9gJKO4N2qwgh-124" value="Mahasiswa" style="whiteSpace=wrap;html=1;align=center;" parent="1" vertex="1">
          <mxGeometry x="70" y="-220" width="100" height="40" as="geometry" />
        </mxCell>
        <mxCell id="m8yf4vWD9gJKO4N2qwgh-125" value="" style="endArrow=none;html=1;rounded=0;" parent="1" source="m8yf4vWD9gJKO4N2qwgh-123" target="m8yf4vWD9gJKO4N2qwgh-121" edge="1">
          <mxGeometry relative="1" as="geometry">
            <mxPoint x="260" y="-60" as="sourcePoint" />
            <mxPoint x="260" y="65" as="targetPoint" />
          </mxGeometry>
        </mxCell>
        <mxCell id="m8yf4vWD9gJKO4N2qwgh-126" value="" style="endArrow=none;html=1;rounded=0;" parent="1" source="m8yf4vWD9gJKO4N2qwgh-124" target="m8yf4vWD9gJKO4N2qwgh-121" edge="1">
          <mxGeometry relative="1" as="geometry">
            <mxPoint x="335" y="-190" as="sourcePoint" />
            <mxPoint x="283" y="-120" as="targetPoint" />
          </mxGeometry>
        </mxCell>
        <mxCell id="m8yf4vWD9gJKO4N2qwgh-135" value="Merekomendasikan" style="shape=rhombus;perimeter=rhombusPerimeter;whiteSpace=wrap;html=1;align=center;" parent="1" vertex="1">
          <mxGeometry x="10" y="210" width="160" height="60" as="geometry" />
        </mxCell>
        <mxCell id="m8yf4vWD9gJKO4N2qwgh-136" value="" style="endArrow=none;html=1;rounded=0;" parent="1" source="m8yf4vWD9gJKO4N2qwgh-135" target="m8yf4vWD9gJKO4N2qwgh-3" edge="1">
          <mxGeometry relative="1" as="geometry">
            <mxPoint x="210" y="200" as="sourcePoint" />
            <mxPoint x="370" y="200" as="targetPoint" />
          </mxGeometry>
        </mxCell>
        <mxCell id="m8yf4vWD9gJKO4N2qwgh-139" value="N" style="edgeLabel;html=1;align=center;verticalAlign=middle;resizable=0;points=[];" parent="m8yf4vWD9gJKO4N2qwgh-136" vertex="1" connectable="0">
          <mxGeometry x="-0.2041" y="2" relative="1" as="geometry">
            <mxPoint as="offset" />
          </mxGeometry>
        </mxCell>
        <mxCell id="m8yf4vWD9gJKO4N2qwgh-137" value="" style="endArrow=none;html=1;rounded=0;exitX=0;exitY=0;exitDx=0;exitDy=0;" parent="1" source="m8yf4vWD9gJKO4N2qwgh-135" target="m8yf4vWD9gJKO4N2qwgh-3" edge="1">
          <mxGeometry relative="1" as="geometry">
            <mxPoint x="112" y="248" as="sourcePoint" />
            <mxPoint x="225" y="135" as="targetPoint" />
          </mxGeometry>
        </mxCell>
        <mxCell id="m8yf4vWD9gJKO4N2qwgh-138" value="1" style="edgeLabel;html=1;align=center;verticalAlign=middle;resizable=0;points=[];" parent="m8yf4vWD9gJKO4N2qwgh-137" vertex="1" connectable="0">
          <mxGeometry x="0.2436" y="-5" relative="1" as="geometry">
            <mxPoint as="offset" />
          </mxGeometry>
        </mxCell>
        <mxCell id="m8yf4vWD9gJKO4N2qwgh-140" value="Menyukai" style="shape=rhombus;perimeter=rhombusPerimeter;whiteSpace=wrap;html=1;align=center;" parent="1" vertex="1">
          <mxGeometry x="414" y="130" width="120" height="60" as="geometry" />
        </mxCell>
        <mxCell id="m8yf4vWD9gJKO4N2qwgh-141" value="" style="endArrow=none;html=1;rounded=0;" parent="1" source="m8yf4vWD9gJKO4N2qwgh-3" target="m8yf4vWD9gJKO4N2qwgh-140" edge="1">
          <mxGeometry relative="1" as="geometry">
            <mxPoint x="240" y="120" as="sourcePoint" />
            <mxPoint x="400" y="120" as="targetPoint" />
          </mxGeometry>
        </mxCell>
        <mxCell id="m8yf4vWD9gJKO4N2qwgh-143" value="N" style="edgeLabel;html=1;align=center;verticalAlign=middle;resizable=0;points=[];" parent="m8yf4vWD9gJKO4N2qwgh-141" vertex="1" connectable="0">
          <mxGeometry x="-0.1004" y="-3" relative="1" as="geometry">
            <mxPoint as="offset" />
          </mxGeometry>
        </mxCell>
        <mxCell id="m8yf4vWD9gJKO4N2qwgh-142" value="" style="endArrow=none;html=1;rounded=0;" parent="1" source="m8yf4vWD9gJKO4N2qwgh-2" target="m8yf4vWD9gJKO4N2qwgh-140" edge="1">
          <mxGeometry relative="1" as="geometry">
            <mxPoint x="330" y="122" as="sourcePoint" />
            <mxPoint x="447" y="158" as="targetPoint" />
          </mxGeometry>
        </mxCell>
        <mxCell id="m8yf4vWD9gJKO4N2qwgh-144" value="N" style="edgeLabel;html=1;align=center;verticalAlign=middle;resizable=0;points=[];" parent="m8yf4vWD9gJKO4N2qwgh-142" vertex="1" connectable="0">
          <mxGeometry x="0.0916" y="1" relative="1" as="geometry">
            <mxPoint x="1" as="offset" />
          </mxGeometry>
        </mxCell>
      </root>
    </mxGraphModel>
  </diagram>
</mxfile>
